<svg id="Pen" xmlns="http://www.w3.org/2000/svg" width="150" height="150" viewBox="0 0 150 150">
  <defs>
    <style>
      .cls-1 {
        fill: #854d08;
      }

      .cls-1, .cls-10, .cls-2, .cls-3, .cls-4, .cls-5, .cls-6, .cls-7, .cls-8, .cls-9 {
        fill-rule: evenodd;
      }

      .cls-2 {
        fill: #452e12;
      }

      .cls-3 {
        fill: #4a4a4a;
      }

      .cls-4 {
        fill: #999;
      }

      .cls-5 {
        fill: #495958;
      }

      .cls-6 {
        fill: #56706e;
      }

      .cls-7 {
        fill: #2a1500;
      }

      .cls-8 {
        fill: #385b6a;
      }

      .cls-9 {
        fill: #234a5a;
      }

      .cls-10 {
        fill: #fff;
      }
    </style>
  </defs>
  <path id="Color_Fill_3_copy" data-name="Color Fill 3 copy" class="cls-1" d="M0,150c0.588-1.721,0-2.982,0-4.688,2.275-6.206,5.778-12.089,9.375-18.75C33.721,73.743,76.121,31.28,131.25,0H150L32.813,117.188v9.374H23.438Z"/>
  <path id="Color_Fill_3_copy_4" data-name="Color Fill 3 copy 4" class="cls-2" d="M0,150H4.688c5.234-1.955,13.452-6.933,18.75-9.375C76.257,116.279,118.72,73.879,150,18.75V0Z"/>
  <path id="Color_Fill_3_copy_2" data-name="Color Fill 3 copy 2" class="cls-3" d="M0,150v-4.688C3.931,135.46,14.008,117,14.063,117.188l9.375,9.374Zm0,0H4.688c9.038-3.714,27.663-13.962,28.037-14.206l-9.287-9.232Z"/>
  <path id="Color_Fill_3_copy_3" data-name="Color Fill 3 copy 3" class="cls-4" d="M0,150c6.323-18.5,13.99-33.063,14.063-32.812l4.688,9.374Z"/>
  <path id="Handle" class="cls-5" d="M135,66h15c-0.175,24.741-12.575,43.759-19,56H117v-5h5c11.919-14.564,16.457-23.633,19-47h-8ZM201.562,9.375"/>
  <path id="Cup_main" data-name="Cup main" class="cls-6" d="M37.5,128.906l-9.642-25.712c-7.772-20.726-18.405-48.3-23.17-61.006a36.71,36.71,0,0,1,0-9.375C4.688,29.828,8.595,15.46,39,7c8.348-2.333,21.3-2.312,36-2.312V140.625c-26.068,0-33.135-9.109-37.5-11.719M-157.031-28.125m0,0"/>
  <path id="Cup_main_copy_4" data-name="Cup main copy 4" class="cls-6" d="M112.207,128.906l9.642-25.712c7.772-20.726,18.4-48.3,23.171-61.006a36.763,36.763,0,0,0,0-9.375c0-2.984-5.085-19.383-30.469-25.781C106.2,4.7,89.411,4.688,74.707,4.688V140.625c26.068,0,33.135-9.109,37.5-11.719M306.738-28.125m0,0"/>
  <path id="Cup_main_copy_3" data-name="Cup main copy 3" class="cls-7" d="M112.5,135.937l9.642-25.712c8.406-22.415,16.145-54.167,18.483-65.694V39.844a23.273,23.273,0,0,0-2.344-9.375c-3.812-7.684-14.765-13.577-23.437-16.406C105.435,10.992,96.981,9.9,75,9c0,45.313-1,93.688-1,139,26.068,0,34.135-9.453,38.5-12.063M307.031-21.094m0,0"/>
  <path id="Cup_main_copy_5" data-name="Cup main copy 5" class="cls-7" d="M37.125,135.937l-9.642-25.712C19.077,87.81,11.338,56.058,9,44.531V39.844a23.275,23.275,0,0,1,2.344-9.375c3.812-7.684,14.766-13.577,23.438-16.406C44.19,10.992,53.129,9.829,76,9c-0.881,45.243-.386,93.625,0,139-26.44-.06-34.51-9.453-38.875-12.063M-157.406-21.094m0,0"/>
  <path id="Cup_Color_Middle" data-name="Cup Color Middle" class="cls-8" d="M-157.031-28.125,112.5,128.906l9.642-25.712C132.55,75.439,145,41,145,41c-14.17,7.383-19.3,11.358-29,15-13.171,3.311-32.088,4.964-41,6v1c-1.737.134-7.472,0.825-11.719,4.969a14.328,14.328,0,0,0,0,21.094A16.051,16.051,0,0,0,75,93.75c4.654,0,9.172-.481,11.719,2.344a10.326,10.326,0,0,1,2.344,7.031,10.756,10.756,0,0,1-2.344,7.031C83.3,113.99,78.191,112.229,75,114.844c-4.736,3.88-3.677,14.213,0,26.156,26.068,0,33.135-9.484,37.5-12.094M-157.031-28.125"/>
  <path id="Cup_Coloring_Bottom" data-name="Cup Coloring Bottom" class="cls-9" d="M37.5,128.906s-3.905-11.2-9.375-25.781C59.343,103.36,44.4,119.531,75,119.531v21.094c-26.068,0-33.135-9.109-37.5-11.719M-157.031-28.125,112.5,128.906l9.642-25.712c6.413-14.536,12.534-34.366,11.452-32.881-3.31,4.539-11.2,49.906-58.594,49.219v21.094c26.068,0,33.135-9.109,37.5-11.719M-157.031-28.125"/>
  <path id="Rim_Left" data-name="Rim Left" class="cls-10" d="M77,59c-23.665.12-50.753-5.548-67.625-16.812A6.26,6.26,0,0,1,7.031,37.5c-0.4,4.3,1.329,6.016,2.344,7.031C26.352,58.425,50.369,62.795,77,63V59Z"/>
  <path id="Rim_Right" data-name="Rim Right" class="cls-10" d="M72,59c23.665,0.12,51.367-5.548,68.239-16.812a6.26,6.26,0,0,0,2.344-4.687c0.4,4.3-1.329,6.016-2.344,7.031C123.262,58.425,98.631,62.795,72,63V59Z"/>
</svg>
