<svg id="Pen" xmlns="http://www.w3.org/2000/svg" width="16" height="16" viewBox="0 0 16 16">
  <defs>
    <style>
      .cls-1 {
        fill: #854d08;
      }

      .cls-1, .cls-10, .cls-2, .cls-3, .cls-4, .cls-5, .cls-6, .cls-7, .cls-8, .cls-9 {
        fill-rule: evenodd;
      }

      .cls-2 {
        fill: #452e12;
      }

      .cls-3 {
        fill: #4a4a4a;
      }

      .cls-4 {
        fill: #999;
      }

      .cls-5 {
        fill: #56706e;
      }

      .cls-6 {
        fill: #2a1500;
      }

      .cls-7 {
        fill: #385b6a;
      }

      .cls-8 {
        fill: #234a5a;
      }

      .cls-9 {
        fill: #fff;
      }

      .cls-10 {
        fill: #495958;
      }
    </style>
  </defs>
  <path id="Color_Fill_3_copy" data-name="Color Fill 3 copy" class="cls-1" d="M0,16a1.34,1.34,0,0,0,0-.5,15.948,15.948,0,0,1,1-2A30.3,30.3,0,0,1,14,0h2L3.5,12.5v1h-1Z"/>
  <path id="Color_Fill_3_copy_4" data-name="Color Fill 3 copy 4" class="cls-2" d="M0,16H0.5c0.558-.209,1.435-0.739,2-1A30.3,30.3,0,0,0,16,2V0Z"/>
  <path id="Color_Fill_3_copy_2" data-name="Color Fill 3 copy 2" class="cls-3" d="M0,16V15.5a32.151,32.151,0,0,1,1.5-3l1,1Zm0,0H0.5c0.964-.4,2.951-1.489,2.991-1.515L2.5,13.5Z"/>
  <path id="Color_Fill_3_copy_3" data-name="Color Fill 3 copy 3" class="cls-4" d="M0,16a22.927,22.927,0,0,1,1.5-3.5l0.5,1Z"/>
  <path id="Cup_main" data-name="Cup main" class="cls-5" d="M4,13.75L2.972,11.007C2.142,8.8,1.008,5.855.5,4.5a3.916,3.916,0,0,1,0-1c0-.318.542-2.068,3.25-2.75A20.733,20.733,0,0,1,8,.5V15a5.473,5.473,0,0,1-4-1.25M-16.75-3m0,0"/>
  <path id="Cup_main_copy_4" data-name="Cup main copy 4" class="cls-5" d="M11.969,13.75L13,11.007C13.826,8.8,14.961,5.855,15.469,4.5a3.921,3.921,0,0,0,0-1c0-.318-0.542-2.068-3.25-2.75A20.732,20.732,0,0,0,7.969.5V15a5.474,5.474,0,0,0,4-1.25M32.719-3m0,0"/>
  <path id="Cup_main_copy_2" data-name="Cup main copy 2" class="cls-6" d="M4,14.5L2.972,11.757A56.29,56.29,0,0,1,1,4.75V4.25a2.483,2.483,0,0,1,.25-1A4.434,4.434,0,0,1,3.75,1.5,12.835,12.835,0,0,1,8,1V15.75A5.473,5.473,0,0,1,4,14.5M-16.75-2.25m0,0"/>
  <path id="Cup_main_copy_3" data-name="Cup main copy 3" class="cls-6" d="M12,14.5l1.028-2.743A56.286,56.286,0,0,0,15,4.75V4.25a2.482,2.482,0,0,0-.25-1,4.434,4.434,0,0,0-2.5-1.75A12.835,12.835,0,0,0,8,1V15.75a5.474,5.474,0,0,0,4-1.25M32.75-2.25m0,0"/>
  <path id="Cup_main_copy" data-name="Cup main copy" class="cls-7" d="M-16.75-3,12,13.75l1.028-2.743C14.139,8.047,15.5,4.5,15.5,4.5a6.725,6.725,0,0,1-3,1.5A23.63,23.63,0,0,1,8,6.75a1.987,1.987,0,0,0-1.25.5,1.528,1.528,0,0,0,0,2.25A1.712,1.712,0,0,0,8,10a1.646,1.646,0,0,1,1.25.25A1.1,1.1,0,0,1,9.5,11a1.147,1.147,0,0,1-.25.75c-0.364.409-.91,0.221-1.25,0.5-0.505.414-.392,1.476,0,2.75a5.474,5.474,0,0,0,4-1.25M-16.75-3"/>
  <path id="Cup_Coloring_Bottom" data-name="Cup Coloring Bottom" class="cls-8" d="M4,13.75S3.583,12.556,3,11c3.33,0.025,1.736,1.75,5,1.75V15a5.473,5.473,0,0,1-4-1.25M-16.75-3,12,13.75l1.028-2.743A20.44,20.44,0,0,0,14.25,7.5C13.9,7.984,13.056,12.823,8,12.75V15a5.474,5.474,0,0,0,4-1.25M-16.75-3"/>
  <path id="Rim" class="cls-9" d="M8.25,6.25A13.959,13.959,0,0,1,1,4.5,0.668,0.668,0,0,1,.75,4,0.814,0.814,0,0,0,1,4.75c1.811,1.482,4.409,1.978,7.25,2V6.25Z"/>
  <path id="Rim_copy" data-name="Rim copy" class="cls-9" d="M8.242,6.25a13.959,13.959,0,0,0,7.25-1.75,0.668,0.668,0,0,0,.25-0.5,0.814,0.814,0,0,1-.25.75c-1.811,1.482-4.409,1.978-7.25,2V6.25Z"/>
  <path id="Handle" class="cls-10" d="M14.5,6.75h1a12.655,12.655,0,0,1-2,6h-1v-0.5H13a11.135,11.135,0,0,0,1.75-5H14.5V6.75ZM21.5,1"/>
</svg>
