<svg id="Pen" xmlns="http://www.w3.org/2000/svg" width="64" height="64" viewBox="0 0 64 64">
  <defs>
    <style>
      .cls-1 {
        fill: #854d08;
      }

      .cls-1, .cls-10, .cls-2, .cls-3, .cls-4, .cls-5, .cls-6, .cls-7, .cls-8, .cls-9 {
        fill-rule: evenodd;
      }

      .cls-2 {
        fill: #452e12;
      }

      .cls-3 {
        fill: #4a4a4a;
      }

      .cls-4 {
        fill: #999;
      }

      .cls-5 {
        fill: #56706e;
      }

      .cls-6 {
        fill: #2a1500;
      }

      .cls-7 {
        fill: #385b6a;
      }

      .cls-8 {
        fill: #234a5a;
      }

      .cls-9 {
        fill: #fff;
      }

      .cls-10 {
        fill: #495958;
      }
    </style>
  </defs>
  <path id="Color_Fill_3_copy" data-name="Color Fill 3 copy" class="cls-1" d="M0,64a5.359,5.359,0,0,0,0-2,63.8,63.8,0,0,1,4-8C14.387,31.464,32.478,13.346,56,0h8L14,50v4H10Z"/>
  <path id="Color_Fill_3_copy_4" data-name="Color Fill 3 copy 4" class="cls-2" d="M0,64H2c2.233-.834,5.739-2.958,8-4C32.536,49.613,50.654,31.522,64,8V0Z"/>
  <path id="Color_Fill_3_copy_2" data-name="Color Fill 3 copy 2" class="cls-3" d="M0,64V62A128.63,128.63,0,0,1,6,50l4,4Zm0,0H2c3.856-1.585,11.8-5.957,11.962-6.061L10,54Z"/>
  <path id="Color_Fill_3_copy_3" data-name="Color Fill 3 copy 3" class="cls-4" d="M0,64A91.705,91.705,0,0,1,6,50l2,4Z"/>
  <path id="Cup_main" data-name="Cup main" class="cls-5" d="M16,55L11.886,44.029C8.57,35.186,4.033,23.422,2,18a15.663,15.663,0,0,1,0-4C2,12.727,4.169,5.73,15,3c3.562-1,10.726-1,17-1V60c-11.122,0-14.138-3.887-16-5M-67-12m0,0"/>
  <path id="Cup_main_copy_4" data-name="Cup main copy 4" class="cls-5" d="M47.875,55l4.114-10.971C55.305,35.186,59.842,23.422,61.875,18a15.661,15.661,0,0,0,0-4c0-1.273-2.169-8.27-13-11-3.562-1-10.726-1-17-1V60c11.122,0,14.138-3.887,16-5m83-67,0,0"/>
  <path id="Cup_main_copy_2" data-name="Cup main copy 2" class="cls-6" d="M16,58L11.886,47.029A225.171,225.171,0,0,1,4,19V17a9.931,9.931,0,0,1,1-4c1.627-3.278,6.3-5.793,10-7,4.015-1.31,8.345-2,17-2V63c-11.122,0-14.138-3.887-16-5M-67-9m0,0"/>
  <path id="Cup_main_copy_3" data-name="Cup main copy 3" class="cls-6" d="M48,58l4.114-10.971A225.171,225.171,0,0,0,60,19V17a9.931,9.931,0,0,0-1-4c-1.627-3.278-6.3-5.793-10-7-4.014-1.31-8.344-2-17-2V63c11.122,0,14.138-3.887,16-5M131-9m0,0"/>
  <path id="Cup_main_copy" data-name="Cup main copy" class="cls-7" d="M-67-12,48,55l4.114-10.971C56.555,32.187,62,18,62,18c-3.913,3.826-7.429,4.377-12,6-4.733,1.681-14.684,2.744-18,3a7.947,7.947,0,0,0-5,2,6.113,6.113,0,0,0,0,9,6.848,6.848,0,0,0,5,2c1.986,0,3.913-.205,5,1a4.405,4.405,0,0,1,1,3,4.589,4.589,0,0,1-1,3c-1.457,1.636-3.639.885-5,2-2.021,1.656-1.569,5.9,0,11,11.122,0,14.138-3.887,16-5M-67-12"/>
  <path id="Cup_Coloring_Bottom" data-name="Cup Coloring Bottom" class="cls-8" d="M16,55s-1.666-4.776-4-11c13.32,0.1,6.946,7,20,7v9c-11.122,0-14.138-3.887-16-5M-67-12,48,55l4.114-10.971C54.85,37.827,57.462,29.367,57,30c-1.412,1.937-4.778,21.293-25,21v9c11.122,0,14.138-3.887,16-5M-67-12"/>
  <path id="Rim" class="cls-9" d="M33,25c-10.1.051-21.8-2.194-29-7a2.671,2.671,0,0,1-1-2,3.256,3.256,0,0,0,1,3c7.243,5.928,17.637,7.913,29,8V25Z"/>
  <path id="Rim_copy" data-name="Rim copy" class="cls-9" d="M32.969,25c10.1,0.051,21.8-2.194,29-7a2.671,2.671,0,0,0,1-2,3.256,3.256,0,0,1-1,3c-7.244,5.928-17.638,7.913-29,8V25Z"/>
  <path id="Handle" class="cls-10" d="M58,28h6c-0.075,10.556-5.259,18.777-8,24H50V50h2c3.752-7.3,6.915-10.03,8-20H58V28ZM86,4"/>
</svg>
