<svg xmlns="http://www.w3.org/2000/svg" viewBox="0 0 256 256">
  <defs>
    <style>
      .cls-1 {
        fill-rule: evenodd;
        fill: currentColor;
      }
    </style>
  </defs>
  <path id="Line_1" data-name="Line 1" class="cls-1" d="M241.637,242.744V53.778A151.277,151.277,0,0,0,200.428,24.6C168.379,8.813,129.287,1.462,89.167,2.369A36.962,36.962,0,0,0,74.744,5.148,24.437,24.437,0,0,0,66.5,10.705V195.5a9.213,9.213,0,0,0,4.121,5.557,17.938,17.938,0,0,0,8.242,2.779c37.129-1.254,73.771,3.4,107.141,13.9A249.768,249.768,0,0,1,241.637,242.744ZM35.923,37.031"/>
  <path id="Color_Fill_1" data-name="Color Fill 1" class="cls-1" d="M219.467,253.694C181.549,244.886,120.276,237.871,86,242c-30.661,3.694-49.512,4.263-58,5a16.405,16.405,0,0,1-6.9-1.031A12.561,12.561,0,0,1,18,244c-2.7-2.234-4-7.906-4-9,0-15.751-.392-151.41.492-187.019,0.045-.151.094-0.3,0.149-0.444,1.226-3.284,4.894-5.365,9.581-6.506h11.12V196.706c0,14.5.485,18.6,2.041,22.239,2.416,4.067,22.594,2,35.487,1.39,15.234-.051,73.359,5.037,88.219,8.34C177.843,232.4,208.819,244.193,219.467,253.694Z"/>
</svg>
